<?xml version="1.0" encoding="utf-8"?>
<!-- Generator: Adobe Illustrator 21.1.0, SVG Export Plug-In . SVG Version: 6.00 Build 0)  -->
<svg version="1.1" id="Layer_1" xmlns="http://www.w3.org/2000/svg" xmlns:xlink="http://www.w3.org/1999/xlink" x="0px" y="0px"
	 viewBox="0 0 171.2 171.2" style="enable-background:new 0 0 171.2 171.2;" xml:space="preserve">
<style type="text/css">
	.st0{fill:#FFFFFF;stroke:#000000;stroke-width:2.8112;stroke-miterlimit:10;}
</style>
<g>
	<path d="M22.4,57.7c1.2-4.6,2.5-9.1,3.7-13.6c9.8,1.9,17,1,21.9-0.2c4.6-1.2,7.2-2.6,9.1-1.2c4.1,3-2.4,12.5,2.2,20.5
		c3,5.2,10,8.8,16.6,7.6c8.3-1.5,14.1-10.3,13.5-17.1c-0.6-7-6.6-8.2-7.6-16.3c-0.8-6.2,1.7-13.9,6.9-16.8c6.9-3.9,19.2,0,26.6,12
		c-1.7,29.5,1.5,38.5,5.6,39.7c3.2,0.9,5.8-1.7,19.5-7.6c11.8-5.1,17.7-7.6,20.2-5.8c5.9,4.2,2.3,27.2-10.3,33.9
		c-9,4.8-19-0.6-20.7,2.7c-1,2,1,6.9,18.3,20.6c-2.4,4.3-4.9,8.6-7.3,12.9c-19.5,14.4-27.2,15.9-30.2,13.4c-4.3-3.5,1.8-14.2-5-23
		c-0.4-0.5-5-6.3-12-6.4c-9.9-0.1-18.3,11-16.5,14.9c1.6,3.5,11.5-0.3,14,4.3c2,3.5-1.5,10-3.8,13c0,0-1.1,1.5-2.4,2.8
		c-4.6,4.3-19.1,6.2-37.7,4.9c0.5-28.5-2.5-35.9-5.8-36.5c-3.7-0.8-6.4,6.8-14,8.4c-7.3,1.5-15.9-5.9-18.4-13.5
		C4,96.7,21.2,79,29.3,81c3,0.7,5.7,4.3,7.5,13.2c-0.1-1.4-0.1-2.8-0.3-4.3C34.9,76.1,28.4,65.2,22.4,57.7z"/>
	<path class="st0" d="M27.9,44.5c10.3-6.9,19.2-11.2,25.6-13.8c4.3-1.8,7.2-2.6,9.1-1.2c4.1,3-2.4,12.5,2.2,20.5
		c3,5.2,10,8.8,16.6,7.6c8.3-1.5,14.1-10.3,13.5-17.1c-0.7-7.6-9.3-11.5-7.6-16.3c0.5-1.5,2-2.8,5.6-4.1c9.9-3.7,20.5-2.4,27.9-0.7
		c-1.7,29.5,1.5,38.5,5.6,39.7c4.8,1.4,9.4-8,19.5-7.6c5.2,0.2,11.5,3,14.3,8.7c3.3,6.7,0.7,15.5-4.4,19.3
		c-7.3,5.5-16.8-1.3-20.7,2.7c-2.8,2.8-2.5,10.9,11,33.5c-19.5,14.4-27.2,15.9-30.2,13.4c-4.3-3.5,1.8-14.2-5-23
		c-0.4-0.5-5-6.3-12-6.4c-8.1-0.1-15.6,7.6-16.5,14.9c-1.2,9.6,9.6,14.8,7.8,20.1c-1.3,3.9-9.1,7.2-37.7,4.9
		c0.5-28.5-2.5-35.9-5.8-36.5c-3.7-0.8-6.4,6.8-14,8.4c-7.1,1.5-17.7-5-18.4-13.5c-0.5-6.4,4.8-12.6,10.2-14.9
		c8.4-3.6,14.9,0.7,17.9-2.2C45.1,78.1,43.7,69.2,27.9,44.5z"/>
</g>
</svg>
