<?xml version="1.0" encoding="utf-8"?>
<!-- Generator: Adobe Illustrator 21.1.0, SVG Export Plug-In . SVG Version: 6.00 Build 0)  -->
<svg version="1.1" id="Layer_1" xmlns="http://www.w3.org/2000/svg" xmlns:xlink="http://www.w3.org/1999/xlink" x="0px" y="0px"
	 viewBox="0 0 575.5 575.5" style="enable-background:new 0 0 575.5 575.5;" xml:space="preserve">
<style type="text/css">
	.st0{fill:#FFFFFF;stroke:#000000;stroke-width:10;stroke-miterlimit:10;}
</style>
<g>
	<path d="M62.9,188.9c4.4-16.2,8.9-32.3,13.3-48.5c34.7,6.9,60.5,3.6,77.8-0.7c16.4-4.1,25.5-9.4,32.4-4.3
		c14.6,10.8-8.4,44.5,7.8,73c10.6,18.6,35.6,31.3,58.9,27.1c29.6-5.3,50-36.6,47.9-60.7c-2.2-25-23.4-29.1-27.2-58.1
		c-2.8-22,6.2-49.4,24.7-59.9c24.5-14,68.4,0,94.5,42.7c-6,104.9,5.2,137.1,20,141.3c11.4,3.2,20.8-6,69.4-27
		c41.9-18.1,63-27.1,71.7-20.8c21.1,15,8.1,96.9-36.7,120.7c-32.1,17.1-67.6-2.3-73.7,9.5c-3.7,7.1,3.7,24.5,65,73.2
		c-8.6,15.3-17.3,30.6-25.9,46c-69.4,51.4-96.8,56.4-107.4,47.7c-15.2-12.4,6.3-50.5-17.7-81.7c-1.4-1.8-17.9-22.5-42.7-22.8
		c-35.2-0.5-65.2,39.1-58.7,53c5.8,12.5,40.8-1.1,49.8,15.2c7,12.6-5.4,35.6-13.4,46.4c0,0-4,5.5-8.6,9.8
		c-16.4,15.4-67.9,22.2-134.1,17.6c1.8-101.5-9-127.6-20.5-130c-13.1-2.8-22.6,24.3-49.8,30c-26,5.4-56.6-20.9-65.4-48.1
		c-16.7-51.9,44.5-114.8,73.1-107.9c10.6,2.5,20.1,15.4,26.6,46.8c-0.2-5-0.5-10.1-1.1-15.3C107.5,254.1,84.4,215.6,62.9,188.9z"/>
	<path class="st0" d="M82.5,141.7c36.6-24.6,68.2-39.7,91.1-49.2c15.3-6.3,25.7-9.3,32.4-4.3c14.6,10.8-8.4,44.5,7.8,73
		c10.6,18.6,35.6,31.3,58.9,27.1c29.6-5.3,50-36.6,47.9-60.7c-2.4-27.2-33.2-40.8-27.2-58.1c1.9-5.5,7-9.8,19.8-14.7
		c35.2-13.2,73.1-8.7,99.4-2.5c-6,104.9,5.2,137.1,20,141.3c17.1,4.9,33.5-28.6,69.4-27c18.4,0.8,41,10.8,50.8,31.1
		c11.7,24,2.5,55.2-15.8,68.8c-26,19.4-59.7-4.7-73.7,9.5c-10,10.1-9,38.6,39.1,119.2c-69.4,51.4-96.8,56.4-107.4,47.7
		c-15.2-12.4,6.3-50.5-17.7-81.7c-1.4-1.8-17.9-22.5-42.7-22.8c-28.8-0.4-55.5,27-58.7,53c-4.2,34.2,34,52.6,27.8,71.4
		c-4.5,13.8-32.5,25.7-134.1,17.6c1.8-101.5-9-127.6-20.5-130c-13.1-2.8-22.6,24.3-49.8,30c-25.1,5.2-62.9-17.9-65.4-48.1
		c-1.8-22.8,16.9-44.7,36.2-53c29.9-12.9,52.9,2.5,63.5-8C143.6,261.2,138.7,229.8,82.5,141.7z"/>
</g>
</svg>
